<?xml version="1.0" encoding="UTF-8"?>
<svg width="100px" height="30px" viewBox="0 0 258 51" version="1.1" xmlns="http://www.w3.org/2000/svg" xmlns:xlink="http://www.w3.org/1999/xlink">
    <!-- Generator: Sketch 57.1 (83088) - https://sketch.com -->
    <title>Group 2</title>
    <desc>Created with Sketch.</desc>
    <g id="Welcome" stroke="none" stroke-width="1" fill="none" fill-rule="evenodd">
        <g id="On-Air" transform="matrix(1,0,0,1,-282,-15)" fill="#ffffff" fill-rule="nonzero">
            <g id="Group-2" transform="translate(282,15)">
                <path d="M 55 19.3 L 60.9 19.3 L 60.9 30.6 C 61.2 28.7 63.3 27.7 67 27.7 C 69.5 27.7 71.3 28.2 72.3 29.1 C 73.3 30 73.8 31.5 73.8 33.4 L 73.8 47.9 L 67.9 47.9 L 67.9 34.1 C 67.9 33.3 67.8 32.8 67.7 32.4 C 67.5 32 67.3 31.8 66.8 31.6 C 66.4 31.5 65.7 31.4 64.8 31.4 C 63.6 31.4 62.8 31.5 62.2 31.6 C 61.7 31.8 61.3 32 61.2 32.4 C 61 32.7 60.9 33.3 60.9 34.1 L 60.9 47.9 L 55 47.9 L 55 19.3 Z M 85.4 48.3 C 84.2 48.3 83.2 48.3 82.4 48.2 C 81.6 48.1 80.8 48 79.9 47.7 C 79 47.4 78.2 47 77.6 46.5 C 77 46 76.5 45.3 76.1 44.4 C 75.7 43.5 75.5 42.4 75.5 41.1 L 75.5 35.3 C 75.5 34 75.7 32.8 76.1 31.9 C 76.5 30.9 77 30.1 77.7 29.6 C 78.2 29.1 79 28.7 79.9 28.4 C 80.8 28.1 81.7 27.9 82.6 27.8 C 83.6 27.8 84.6 27.7 85.4 27.7 C 86.6 27.7 87.6 27.8 88.3 27.8 C 89.1 27.9 89.9 28.1 90.8 28.3 C 91.7 28.6 92.5 29.1 93.1 29.6 C 93.7 30.1 94.2 30.8 94.7 31.8 C 95.1 32.8 95.3 33.9 95.3 35.3 L 95.3 41.1 C 95.3 42.4 95.1 43.4 94.7 44.4 C 94.3 45.3 93.8 46 93.2 46.5 C 92.7 47 91.9 47.4 91 47.6 C 90.1 47.9 89.2 48.1 88.3 48.2 C 87.5 48.3 86.5 48.3 85.4 48.3 Z M 85.4 44.6 C 86.5 44.6 87.3 44.5 87.9 44.3 C 88.4 44.2 88.8 43.9 89.1 43.5 C 89.3 43.1 89.4 42.6 89.4 41.8 L 89.4 34.4 C 89.4 33.3 89.1 32.5 88.6 32.1 C 88 31.6 86.9 31.4 85.4 31.4 C 83.8 31.4 82.8 31.6 82.2 32.1 C 81.6 32.5 81.4 33.3 81.4 34.4 L 81.4 41.8 C 81.4 42.6 81.5 43.1 81.7 43.5 C 81.9 43.9 82.3 44.2 82.9 44.3 C 83.5 44.5 84.3 44.6 85.4 44.6 Z M 97.2 19.3 L 103 19.3 L 103 47.9 L 97.2 47.9 L 97.2 19.3 Z M 115.2 48.3 C 108.3 48.3 104.9 46.2 104.9 41.9 L 104.9 34.8 C 104.9 32.3 105.7 30.5 107.2 29.4 C 108.8 28.3 111.2 27.7 114.5 27.7 C 117.6 27.7 119.9 28.3 121.3 29.3 C 122.7 30.4 123.4 32.2 123.4 34.8 L 123.4 39.6 L 110.8 39.6 L 110.8 41.4 C 110.8 42.6 111.2 43.4 112 43.9 C 112.8 44.4 114.3 44.6 116.4 44.6 C 118.3 44.6 120.5 44.3 122.9 43.7 L 122.9 47.5 C 120.5 48.1 117.9 48.3 115.2 48.3 Z M 117.8 36.2 L 117.8 33.4 C 117.8 32.7 117.6 32.2 117.1 31.9 C 116.5 31.6 115.7 31.4 114.4 31.4 C 113 31.4 112.1 31.6 111.6 31.9 C 111.1 32.3 110.8 32.7 110.8 33.4 L 110.8 36.2 L 117.8 36.2 Z M 132.3 48.3 C 130.3 48.3 127.7 48.1 124.7 47.7 L 124.7 43.7 C 128.4 44.3 131 44.6 132.4 44.6 C 133.7 44.6 134.6 44.5 135.2 44.2 C 135.8 44 136 43.5 136 42.9 L 136 41.7 C 136 41 135.9 40.5 135.5 40.2 C 135.1 39.9 134.4 39.8 133.3 39.8 L 130.7 39.8 C 128.7 39.8 127.1 39.4 126 38.5 C 124.8 37.7 124.3 36.5 124.3 34.9 L 124.3 32.5 C 124.3 30.8 125.1 29.5 126.7 28.8 C 128.3 28.1 130.7 27.7 134 27.7 C 135.2 27.7 137.5 27.9 140.9 28.1 L 140.9 31.9 C 136.7 31.6 134.3 31.4 133.8 31.4 C 132.2 31.4 131.2 31.5 130.7 31.7 C 130.3 32 130.1 32.4 130.1 33.1 L 130.1 34.1 C 130.1 34.5 130.2 34.8 130.6 35.1 C 130.9 35.3 131.4 35.5 132.1 35.5 L 134.7 35.5 C 139.5 35.5 141.8 37 141.8 40.2 L 141.8 42.7 C 141.8 43.6 141.7 44.5 141.3 45.2 C 141 45.9 140.5 46.4 139.9 46.8 C 139.4 47.2 138.7 47.5 137.9 47.7 C 137 48 136.2 48.1 135.2 48.2 C 134.4 48.3 133.4 48.3 132.3 48.3 Z M 148.8 48.3 C 147 48.3 145.6 48.1 144.7 47.8 C 143.8 47.5 143.2 46.9 142.8 46 C 142.5 45.1 142.3 43.8 142.3 42 C 142.3 40.4 142.5 39.2 142.9 38.3 C 143.3 37.4 143.9 36.7 144.8 36.3 C 145.6 35.9 146.8 35.7 148.4 35.7 L 155 35.7 L 155 34.4 C 155 33.5 154.9 32.9 154.6 32.5 C 154.4 32.1 154 31.8 153.4 31.7 C 152.8 31.5 151.9 31.4 150.7 31.4 C 149 31.4 146.7 31.6 143.8 31.9 L 143.8 28.1 C 146 27.9 148.4 27.7 151.3 27.7 C 153.8 27.7 155.7 27.9 157 28.3 C 158.4 28.7 159.4 29.3 160 30.3 C 160.5 31.2 160.8 32.5 160.8 34.3 L 160.8 47.9 L 155.1 47.9 L 155.1 46.1 C 154.6 46.9 154 47.5 153.2 47.8 C 152.5 48.1 151 48.3 148.8 48.3 Z M 151.1 44.6 C 152.3 44.6 153.1 44.6 153.6 44.5 C 154 44.4 154.3 44.3 154.4 44.2 C 154.6 44.1 154.7 43.9 154.8 43.7 C 154.9 43.5 155 43.2 155 42.8 L 155 39 L 151 39 C 150 39 149.4 39.1 149 39.2 C 148.6 39.3 148.4 39.6 148.3 39.9 C 148.1 40.3 148.1 40.9 148.1 41.9 C 148.1 42.8 148.1 43.4 148.3 43.7 C 148.4 44.1 148.7 44.3 149 44.4 C 149.4 44.5 150.1 44.6 151.1 44.6 Z M 163.3 19.3 L 169.2 19.3 L 169.2 47.9 L 163.3 47.9 L 163.3 19.3 Z M 181.4 48.3 C 174.5 48.3 171 46.2 171 41.9 L 171 34.8 C 171 32.3 171.8 30.5 173.4 29.4 C 174.9 28.3 177.4 27.7 180.6 27.7 C 183.7 27.7 186 28.3 187.4 29.3 C 188.8 30.4 189.6 32.2 189.6 34.8 L 189.6 39.6 L 176.9 39.6 L 176.9 41.4 C 176.9 42.6 177.3 43.4 178.1 43.9 C 178.9 44.4 180.4 44.6 182.5 44.6 C 184.4 44.6 186.6 44.3 189 43.7 L 189 47.5 C 186.6 48.1 184.1 48.3 181.4 48.3 Z M 184 36.2 L 184 33.4 C 184 32.7 183.7 32.2 183.2 31.9 C 182.7 31.6 181.8 31.4 180.6 31.4 C 179.1 31.4 178.2 31.6 177.7 31.9 C 177.2 32.3 176.9 32.7 176.9 33.4 L 176.9 36.2 L 184 36.2 Z M 191.2 28.1 L 196.8 28.1 L 196.8 31.6 C 196.8 31 197 30.4 197.6 29.8 C 198.1 29.2 198.7 28.7 199.5 28.3 C 200.3 27.9 201.1 27.7 201.9 27.7 L 203.9 27.7 L 203.9 32.7 L 201.9 32.7 C 200.3 32.7 199 32.9 198.3 33.5 C 197.5 34 197.1 34.8 197.1 36 L 197.1 47.9 L 191.2 47.9 L 191.2 28.1 Z M 203.7 42.3 L 210 42.3 L 210 47.9 L 203.7 47.9 L 203.7 42.3 Z" id="holesaler."></path>
                <polygon id="V" transform="translate(237.4,34.7) rotate(20) translate(-237.4,-34.7)" points="225,28.8 232.6,28.8 241,53.8 241.2,53.8 249.6,28.8 257,28.8 245.4,60 236.2,60"></polygon>
                <polygon id="T" points="215.5,20.1 205,20.1 205,14.3 234,14.3 234,20.1 223.6,20.1 223.6,48.3 215.5,48.3"></polygon>
                <polygon id="W" transform="translate(31.7,25.6) rotate(-17) translate(-31.7,-25.6)" points="1.4,17.2 10.5,17.2 17.6,43.9 24.7,17.2 32.8,17.2 40.5,43.9 47,17.2 55.9,17.2 44.2,53.7 35.6,53.7 28.6,27.2 21.4,53.7 12.7,53.7"></polygon>
            </g>
        </g>
    </g>
</svg>