<?xml version="1.0" encoding="UTF-8"?>
<svg width="70px" height="15px" viewBox="0 0 258 51" version="1.1" xmlns="http://www.w3.org/2000/svg" xmlns:xlink="http://www.w3.org/1999/xlink">
    <!-- Generator: Sketch 57.1 (83088) - https://sketch.com -->
    <title>Group 2</title>
    <desc>Created with Sketch.</desc>
    <g id="Welcome" stroke="none" stroke-width="1" fill="none" fill-rule="evenodd">
        <g id="On-Air" transform="translate(-282.000000, -15.000000)" fill="#FFFFFF" fill-rule="nonzero">
            <g id="Group-2" transform="translate(282.000000, 15.000000)">
                <path d="M55,9 L60.8716038,9 L60.8716038,20.2323944 C61.2469594,18.3535117 63.2979786,17.4140845 67.0247229,17.4140845 C69.5181562,17.4140845 71.2675549,17.8701832 72.2729716,18.7823944 C73.2783882,19.6946055 73.781089,21.1309761 73.781089,23.0915493 L73.781089,37.5915493 L67.9094852,37.5915493 L67.9094852,23.7859155 C67.9094852,23.0234704 67.8357557,22.4584525 67.6882946,22.0908451 C67.5408335,21.7232376 67.2526184,21.4645547 66.8236406,21.3147887 C66.3946628,21.1650227 65.7109898,21.0901408 64.7726009,21.0901408 C63.6197232,21.0901408 62.7751858,21.1582153 62.2389636,21.2943662 C61.7027414,21.4305171 61.3407969,21.6823925 61.1531191,22.05 C60.9654413,22.4176075 60.8716038,22.9962402 60.8716038,23.7859155 L60.8716038,37.5915493 L55,37.5915493 L55,9 Z M85.3864117,38 C84.1799117,38 83.1879155,37.9591553 82.4103933,37.8774648 C81.6328711,37.7957742 80.8017391,37.6323944 79.9169725,37.3873239 C78.9517725,37.1150221 78.1742619,36.7269978 77.5844175,36.2232394 C76.9945731,35.719481 76.498573,35.0046995 76.0964083,34.0788732 C75.6942437,33.1802772 75.4931613,32.0910862 75.4931613,30.8112676 L75.4931613,24.9704225 C75.4931613,23.6633737 75.6942437,22.5197232 76.0964083,21.5394366 C76.498573,20.55915 77.0213838,19.7967163 77.6648504,19.2521127 C78.2278838,18.7891996 78.9718809,18.4011753 79.8968642,18.0880282 C80.8218475,17.7748811 81.7267089,17.5774652 82.6114756,17.4957746 C83.6302978,17.4413143 84.5552672,17.4140845 85.3864117,17.4140845 C86.6197227,17.4140845 87.6050163,17.4481217 88.3423218,17.5161972 C89.0796273,17.5842726 89.8906513,17.7544587 90.7754179,18.0267606 C91.7406179,18.3262926 92.5248311,18.7347392 93.1280811,19.2521127 C93.7313311,19.7694862 94.2474372,20.5046901 94.676415,21.4577465 C95.0785816,22.4380331 95.279662,23.6089134 95.279662,24.9704225 L95.279662,30.8112676 C95.279662,32.0366258 95.0852843,33.1122019 94.6965232,34.0380282 C94.3077621,34.9638544 93.8050613,35.6854434 93.1884058,36.2028169 C92.6521836,36.66573 91.9215918,37.0401394 90.9966085,37.3260563 C90.0716252,37.6119733 89.1667638,37.7957742 88.2819971,37.8774648 C87.4776638,37.9591553 86.5124783,38 85.3864117,38 Z M85.3864117,34.2830986 C86.4856672,34.2830986 87.3167991,34.1946018 87.8798325,34.0176056 C88.4428658,33.8406094 88.8383237,33.5615043 89.0662182,33.1802817 C89.2941126,32.7990591 89.4080581,32.2408487 89.4080581,31.5056338 L89.4080581,24.0309859 C89.4080581,22.9417786 89.1265457,22.1793449 88.5635124,21.743662 C88.0004819,21.307979 86.9414561,21.0901408 85.3864117,21.0901408 C83.8313672,21.0901408 82.7723415,21.307979 82.2093109,21.743662 C81.6462776,22.1793449 81.3647652,22.9417786 81.3647652,24.0309859 L81.3647652,31.5056338 C81.3647652,32.2408487 81.4787107,32.7990591 81.7066051,33.1802817 C81.9344996,33.5615043 82.3299575,33.8406094 82.8929908,34.0176056 C83.4560242,34.1946018 84.2871561,34.2830986 85.3864117,34.2830986 Z M97.1526002,9 L103.024204,9 L103.024204,37.5915493 L97.1526002,37.5915493 L97.1526002,9 Z M115.232774,38 C108.342318,38 104.897142,35.8624627 104.897142,31.5873239 L104.897142,24.4802817 C104.897142,22.002335 105.681355,20.2051699 107.249805,19.0887324 C108.818255,17.9722949 111.237922,17.4140845 114.508877,17.4140845 C117.592155,17.4140845 119.850957,17.9518726 121.285352,19.0274648 C122.719746,20.103057 123.436932,21.9206445 123.436932,24.4802817 L123.436932,29.3 L110.808963,29.3 L110.808963,31.0971831 C110.808963,32.2408508 111.211123,33.057744 112.015456,33.5478873 C112.81979,34.0380306 114.267568,34.2830986 116.358835,34.2830986 C118.289235,34.2830986 120.460902,33.997186 122.873902,33.4253521 L122.873902,37.2239437 C120.487713,37.7413171 117.940696,38 115.232774,38 Z M117.846844,25.9098592 L117.846844,23.0507042 C117.846844,22.3971798 117.585439,21.9070423 117.062623,21.5802817 C116.539806,21.2535195 115.661755,21.0901408 114.428444,21.0901408 C113.007455,21.0901408 112.055675,21.2535195 111.573075,21.5802817 C111.063664,21.9342741 110.808963,22.42441 110.808963,23.0507042 L110.808963,25.9098592 L117.846844,25.9098592 Z M132.347752,38 C130.256485,38 127.696063,37.7957767 124.666407,37.3873239 L124.666407,33.4253521 C128.393152,33.997186 130.980385,34.2830986 132.428185,34.2830986 C133.661496,34.2830986 134.57306,34.1605634 135.162904,33.915493 C135.752749,33.6704213 136.047667,33.22113 136.047667,32.5676056 L136.047667,31.3422535 C136.047667,30.6614989 135.859992,30.1781704 135.484636,29.8922535 C135.109281,29.6063366 134.371986,29.4633803 133.272731,29.4633803 L130.739093,29.4633803 C128.674638,29.4633803 127.079401,29.0481262 125.953334,28.2176056 C124.827267,27.387085 124.264243,26.1685526 124.264243,24.5619718 L124.264243,22.1521127 C124.264243,20.4366111 125.068564,19.2180787 126.67723,18.4964789 C128.285897,17.774879 130.712266,17.4140845 133.956411,17.4140845 C135.243344,17.4140845 137.549065,17.5366185 140.873642,17.7816901 L140.873642,21.5802817 C136.691109,21.2535195 134.331767,21.0901408 133.795545,21.0901408 C132.213689,21.0901408 131.181477,21.1990599 130.698877,21.4169014 C130.269899,21.6619731 130.055413,22.1112676 130.055413,22.7647887 L130.055413,23.8267606 C130.055413,24.1807529 130.229683,24.4870879 130.578228,24.7457746 C130.926772,25.0044614 131.436175,25.1338028 132.106453,25.1338028 L134.680307,25.1338028 C139.452685,25.1338028 141.838838,26.7131297 141.838838,29.871831 L141.838838,32.3633803 C141.838838,33.3164367 141.664568,34.1469448 141.316024,34.8549296 C140.967479,35.5629143 140.511697,36.1211247 139.948664,36.5295775 C139.412442,36.9108 138.722066,37.2103275 137.877516,37.428169 C137.032966,37.6460105 136.154915,37.7957742 135.243337,37.8774648 C134.412193,37.9591553 133.447007,38 132.347752,38 Z M148.819267,38 C146.996111,38 145.635468,37.8298139 144.737296,37.4894366 C143.839123,37.1490593 143.209072,36.5363894 142.847122,35.6514085 C142.485172,34.7664275 142.3042,33.438976 142.3042,31.6690141 C142.3042,30.0896635 142.498577,28.8507087 142.887338,27.9521127 C143.276099,27.0535166 143.906151,26.4068095 144.777512,26.0119718 C145.648873,25.6171342 146.848652,25.4197183 148.376886,25.4197183 L154.972386,25.4197183 L154.972386,24.071831 C154.972386,23.2276953 154.85844,22.6014105 154.630546,22.1929577 C154.402652,21.784505 153.987086,21.4985915 153.383836,21.3352113 C152.780586,21.1718302 151.875724,21.0901408 150.669224,21.0901408 C149.006935,21.0901408 146.728025,21.2535195 143.832425,21.5802817 L143.832425,17.8225352 C145.950503,17.5502334 148.430493,17.4140845 151.272471,17.4140845 C153.765904,17.4140845 155.689573,17.6046929 157.043534,17.9859155 C158.397495,18.3671381 159.369383,19.0206526 159.959228,19.9464789 C160.549072,20.8723051 160.84399,22.2201789 160.84399,23.9901408 L160.84399,37.5915493 L155.093035,37.5915493 L155.093035,35.7943662 C154.637246,36.5840415 154.0206,37.1422519 153.243078,37.4690141 C152.465556,37.8230065 150.990967,38 148.819267,38 Z M151.111605,34.2830986 C152.291294,34.2830986 153.135831,34.2422539 153.645243,34.1605634 C154.020598,34.106103 154.282003,34.0244137 154.429464,33.915493 C154.576925,33.8065722 154.704276,33.6295787 154.81152,33.384507 C154.918765,33.1938958 154.972386,32.9079831 154.972386,32.5267606 L154.972386,28.6873239 L150.950739,28.6873239 C150.039162,28.6873239 149.395705,28.7485909 149.020349,28.8711268 C148.644994,28.9936626 148.390292,29.2387306 148.256236,29.606338 C148.122181,29.9739455 148.055154,30.6206526 148.055154,31.5464789 C148.055154,32.4450749 148.122181,33.0713597 148.256236,33.4253521 C148.390292,33.7793445 148.651696,34.0107976 149.040457,34.1197183 C149.429218,34.228639 150.119594,34.2830986 151.111605,34.2830986 Z M163.279958,9 L169.151562,9 L169.151562,37.5915493 L163.279958,37.5915493 L163.279958,9 Z M181.360132,38 C174.469677,38 171.024501,35.8624627 171.024501,31.5873239 L171.024501,24.4802817 C171.024501,22.002335 171.808714,20.2051699 173.377164,19.0887324 C174.945614,17.9722949 177.36528,17.4140845 180.636236,17.4140845 C183.719513,17.4140845 185.978315,17.9518726 187.41271,19.0274648 C188.847104,20.103057 189.564291,21.9206445 189.564291,24.4802817 L189.564291,29.3 L176.936321,29.3 L176.936321,31.0971831 C176.936321,32.2408508 177.338481,33.057744 178.142815,33.5478873 C178.947148,34.0380306 180.394926,34.2830986 182.486193,34.2830986 C184.416593,34.2830986 186.58826,33.997186 189.00126,33.4253521 L189.00126,37.2239437 C186.615071,37.7413171 184.068054,38 181.360132,38 Z M183.974202,25.9098592 L183.974202,23.0507042 C183.974202,22.3971798 183.712798,21.9070423 183.189981,21.5802817 C182.667164,21.2535195 181.789114,21.0901408 180.555803,21.0901408 C179.134814,21.0901408 178.183034,21.2535195 177.700434,21.5802817 C177.191023,21.9342741 176.936321,22.42441 176.936321,23.0507042 L176.936321,25.9098592 L183.974202,25.9098592 Z M191.19593,17.8225352 L196.786019,17.8225352 L196.786019,21.2943662 C196.786019,20.668072 197.04072,20.0554021 197.550132,19.456338 C198.059543,18.857274 198.709702,18.3671381 199.50063,17.9859155 C200.291558,17.6046929 201.075771,17.4140845 201.853293,17.4140845 L203.944549,17.4140845 L203.944549,22.356338 L201.933726,22.356338 C200.271437,22.356338 199.044847,22.6150209 198.25392,23.1323944 C197.462992,23.6497678 197.067534,24.5075057 197.067534,25.7056338 L197.067534,37.5915493 L191.19593,37.5915493 L191.19593,17.8225352 Z M203.726232,31.9549296 L210,31.9549296 L210,37.5915493 L203.726232,37.5915493 L203.726232,31.9549296 Z" id="holesaler."></path>
                <polygon id="V" transform="translate(237.438585, 34.698199) rotate(20.000000) translate(-237.438585, -34.698199) " points="221.430026 19.0705678 229.048557 19.0680737 237.430392 44.0712286 237.623267 44.0711654 246.021488 19.0625171 253.447145 19.0600861 241.864447 50.3332969 232.654704 50.336312"></polygon>
                <polygon id="T" points="215.45045 9.81510015 205 9.81510015 205 4 234 4 234 9.81510015 223.601802 9.81510015 223.601802 38 215.45045 38"></polygon>
                <polygon id="W" transform="translate(31.673887, 25.594062) rotate(-17.000000) translate(-31.673887, -25.594062) " points="4.41747497 7.34805548 13.531074 7.35065098 20.627023 33.9958674 27.7077835 7.35468843 35.8650172 7.35701157 43.5235341 34.0023882 50.0417267 7.36104902 58.9302986 7.36358043 47.2392856 43.8400693 38.5757409 43.8376019 31.5923535 17.3610454 24.3990313 43.8335645 15.7354866 43.8310972"></polygon>
            </g>
        </g>
    </g>
</svg>